<svg xmlns="http://www.w3.org/2000/svg" xmlns:xlink="http://www.w3.org/1999/xlink" width="56" zoomAndPan="magnify" viewBox="0 0 42 42" height="56" preserveAspectRatio="xMidYMid meet" version="1.0"><defs><g/><clipPath id="10b9fc5155"><path d="M 0.488281 0 L 41.511719 0 L 41.511719 41.023438 L 0.488281 41.023438 Z M 0.488281 0 " clip-rule="nonzero"/></clipPath><clipPath id="7a1c502888"><path d="M 0.488281 0 L 41.511719 0 L 41.511719 41.023438 L 0.488281 41.023438 Z M 0.488281 0 " clip-rule="nonzero"/></clipPath><clipPath id="4764b17829"><path d="M 0.488281 0 L 41.511719 0 L 41.511719 41.023438 L 0.488281 41.023438 Z M 0.488281 0 " clip-rule="nonzero"/></clipPath><clipPath id="b301a924a5"><rect x="0" width="42" y="0" height="42"/></clipPath><clipPath id="64b662f5ad"><path d="M 1.613281 1.535156 L 40.386719 1.535156 L 40.386719 40.304688 L 1.613281 40.304688 Z M 1.613281 1.535156 " clip-rule="nonzero"/></clipPath><clipPath id="c430911239"><path d="M 21 1.535156 C 10.292969 1.535156 1.613281 10.214844 1.613281 20.917969 C 1.613281 31.625 10.292969 40.304688 21 40.304688 C 31.707031 40.304688 40.386719 31.625 40.386719 20.917969 C 40.386719 10.214844 31.707031 1.535156 21 1.535156 Z M 21 1.535156 " clip-rule="nonzero"/></clipPath><clipPath id="03fc107b6e"><path d="M 0.613281 0.535156 L 39.386719 0.535156 L 39.386719 39.304688 L 0.613281 39.304688 Z M 0.613281 0.535156 " clip-rule="nonzero"/></clipPath><clipPath id="776ec877f5"><path d="M 20 0.535156 C 9.292969 0.535156 0.613281 9.214844 0.613281 19.917969 C 0.613281 30.625 9.292969 39.304688 20 39.304688 C 30.707031 39.304688 39.386719 30.625 39.386719 19.917969 C 39.386719 9.214844 30.707031 0.535156 20 0.535156 Z M 20 0.535156 " clip-rule="nonzero"/></clipPath><clipPath id="c718c3bb90"><rect x="0" width="40" y="0" height="40"/></clipPath><clipPath id="89c4d74dc0"><path d="M 3 0 L 39 0 L 39 41.023438 L 3 41.023438 Z M 3 0 " clip-rule="nonzero"/></clipPath><clipPath id="f10ff404a1"><path d="M 3 0 L 33 0 L 33 39 L 3 39 Z M 3 0 " clip-rule="nonzero"/></clipPath><clipPath id="cae3b3a41c"><rect x="0" width="36" y="0" height="42"/></clipPath><clipPath id="f070c2eb72"><rect x="0" width="42" y="0" height="42"/></clipPath></defs><g clip-path="url(#10b9fc5155)"><path fill="#ffffff" d="M 0.488281 0 L 41.511719 0 L 41.511719 41.023438 L 0.488281 41.023438 Z M 0.488281 0 " fill-opacity="1" fill-rule="nonzero"/><path fill="#ffffff" d="M 0.488281 0 L 41.511719 0 L 41.511719 41.023438 L 0.488281 41.023438 Z M 0.488281 0 " fill-opacity="1" fill-rule="nonzero"/><g transform="matrix(1, 0, 0, 1, 0.000000000000000111, 0.000000000000004377)"><g clip-path="url(#f070c2eb72)"><g clip-path="url(#7a1c502888)"><g transform="matrix(1, 0, 0, 1, 0.000000000000000111, 0.000000000000004377)"><g clip-path="url(#b301a924a5)"><g clip-path="url(#4764b17829)"><rect x="-15.288" width="72.576" fill="#ffffff" y="-15.288" height="72.576001" fill-opacity="1"/></g></g></g></g><g clip-path="url(#64b662f5ad)"><g clip-path="url(#c430911239)"><g transform="matrix(1, 0, 0, 1, 1, 1)"><g clip-path="url(#c718c3bb90)"><g clip-path="url(#03fc107b6e)"><g clip-path="url(#776ec877f5)"><path fill="#4683cb" d="M 0.613281 0.535156 L 39.386719 0.535156 L 39.386719 39.304688 L 0.613281 39.304688 Z M 0.613281 0.535156 " fill-opacity="1" fill-rule="nonzero"/></g></g></g></g></g></g><g clip-path="url(#89c4d74dc0)"><g transform="matrix(1, 0, 0, 1, 3, 0.000000000000004377)"><g clip-path="url(#cae3b3a41c)"><g clip-path="url(#f10ff404a1)"><g fill="#ffffff" fill-opacity="1"><g transform="translate(0.885925, 38.293943)"><g><path d="M 21.664062 -10.953125 C 23.28125 -10.953125 24.296875 -10.890625 24.296875 -9.214844 L 24.296875 0 L 31.417969 0 L 31.417969 -9.636719 C 31.417969 -11.789062 31.417969 -13.703125 29.625 -14.304688 C 31.417969 -14.902344 31.417969 -16.816406 31.417969 -18.972656 L 31.417969 -28.605469 L 24.296875 -28.605469 L 24.296875 -19.449219 C 24.296875 -17.773438 23.28125 -17.714844 21.664062 -17.714844 L 9.933594 -17.714844 L 9.933594 -39.917969 L 2.8125 -39.917969 L 2.8125 0 L 9.933594 0 L 9.933594 -10.953125 Z M 21.664062 -10.953125 "/></g></g></g></g></g></g></g></g></g></g></svg>